# xmcd
#
# Track frame offsets:
#	182
#	4365
#	7220
#	30982
#	43450
#	53665
#	103540
#	134817
#	139947
#	147590
#	153522
#	159622
#	173427
#	190842
#	219117
#	222567
#	236857
#	272537
#	274540
#	277065
#	289402
#	305497
#
# Disc length: 4386 seconds
#
# Revision: 7
# Processed by: cddbd v1.5.2PL0 Copyright (c) Steve Scherf et al.
# Submitted via: EZCDAudioConverter 1.3.4.1
#
DISCID=59112016
DTITLE=Laurie Anderson - United States Live 2/4
DYEAR=1984
DGENRE=
TTITLE0=Sax Solo (For Tape Bow Violin)
TTITLE1=Sax Duet
TTITLE2=Born, Never Asked
TTITLE3=From The Air
TTITLE4=Beginning French
TTITLE5=O Superman
TTITLE6=Talkshow
TTITLE7=Frames For The Pictures
TTITLE8=Democratic Way
TTITLE9=Looking For You
TTITLE10=Walking And Falling
TTITLE11=Private Property
TTITLE12=Neon Duet (For Violin And Neon Bow)
TTITLE13=Let X=X
TTITLE14=The Mailman's Nightmare
TTITLE15=Difficult Listening Hour
TTITLE16=Language Is A Virus From Outer Space
TTITLE17=Reverb
TTITLE18=If You Can't Talk About It, Point To It (For Ludwig Wittgenstein and Re
TTITLE18=verend Ike)
TTITLE19=Violin Walk
TTITLE20=City Song
TTITLE21=Finnish Farmers
EXTD=
EXTT0=
EXTT1=
EXTT2=
EXTT3=
EXTT4=
EXTT5=
EXTT6=
EXTT7=
EXTT8=
EXTT9=
EXTT10=
EXTT11=
EXTT12=
EXTT13=
EXTT14=
EXTT15=
EXTT16=
EXTT17=
EXTT18=
EXTT19=
EXTT20=
EXTT21=
PLAYORDER=
